<?xml version="1.0" standalone="no"?>
<!DOCTYPE svg PUBLIC "-//W3C//DTD SVG 20010904//EN"
 "http://www.w3.org/TR/2001/REC-SVG-20010904/DTD/svg10.dtd">
<svg version="1.0" xmlns="http://www.w3.org/2000/svg"
 width="600.000000pt" height="600.000000pt" viewBox="0 0 600.000000 600.000000"
 preserveAspectRatio="xMidYMid meet">

<g transform="translate(0.000000,600.000000) scale(0.100000,-0.100000)"
fill="#000000" stroke="none">
<path d="M240 4525 l0 -25 187 0 c168 0 185 -2 166 -15 -22 -16 -77 -124 -256
-505 -120 -256 -152 -336 -187 -460 -11 -41 -26 -84 -32 -95 -28 -50 -51 -164
-53 -265 -1 -58 -7 -125 -13 -150 -15 -59 -15 -123 0 -138 7 -7 24 -12 40 -12
23 0 29 6 38 39 6 22 14 79 18 128 9 107 25 116 59 30 29 -73 180 -299 261
-392 75 -86 184 -180 305 -262 l91 -63 -312 0 -312 0 0 -25 0 -25 2775 0 2775
0 0 25 0 25 -2427 1 c-2287 0 -2427 1 -2403 17 48 33 159 132 179 160 11 16
23 47 27 70 9 58 -18 81 -141 121 -235 77 -387 173 -575 361 -69 69 -148 158
-175 197 l-48 73 28 71 c34 87 49 96 141 82 l66 -9 15 35 c8 20 93 218 188
441 188 442 202 477 193 485 -3 4 -32 17 -65 31 l-58 24 2146 0 c1181 0 2162
2 2180 5 30 5 29 4 -8 -9 -48 -16 -124 -58 -141 -79 -9 -10 18 -61 129 -238
78 -123 199 -317 270 -430 l130 -206 70 19 c85 24 97 18 148 -66 l33 -56 -17
-42 c-27 -69 -120 -220 -186 -305 -138 -174 -282 -294 -459 -383 -133 -66
-161 -104 -128 -175 19 -43 181 -153 258 -175 44 -13 60 -4 149 83 114 111
180 189 246 291 71 109 182 350 199 431 20 94 39 86 65 -25 26 -114 44 -150
74 -150 54 0 61 56 21 153 -16 38 -28 88 -31 132 -4 64 -40 164 -84 235 -5 8
-40 76 -77 150 -46 93 -132 231 -272 435 -232 342 -264 386 -290 400 -13 7 85
9 306 7 l324 -3 0 25 0 26 -2775 0 -2775 0 0 -25z m506 -60 c102 -30 112 15
-105 -494 -106 -248 -195 -451 -198 -451 -11 0 -128 88 -152 114 -31 33 -30
71 4 171 57 170 279 633 317 659 28 20 70 20 134 1z m4421 -7 c11 -13 59 -77
105 -143 205 -290 328 -497 328 -554 0 -34 -50 -102 -109 -150 -23 -18 -44
-31 -45 -30 -2 2 -116 186 -255 408 -144 230 -250 409 -247 417 8 22 126 74
167 74 24 0 42 -7 56 -22z m505 -743 c10 -18 10 -19 -5 -6 -12 9 -17 10 -17 2
0 -6 -18 -31 -40 -55 -22 -23 -37 -46 -33 -49 3 -4 -9 -7 -27 -7 l-33 0 52 55
c30 32 54 67 58 86 6 30 7 31 20 13 8 -10 19 -28 25 -39z m-5362 -133 c30 -25
57 -49 58 -53 2 -5 -10 -9 -27 -9 -17 0 -30 4 -29 8 2 5 -21 31 -50 58 -52 47
-53 50 -41 77 l13 28 10 -32 c7 -20 33 -50 66 -77z m5384 68 c-5 -5 -10 3 -11
18 -1 22 0 24 9 8 6 -10 6 -22 2 -26z m-5481 -109 c10 -12 9 -12 -11 0 -12 8
-20 20 -17 27 3 8 6 19 6 25 1 7 4 1 6 -13 3 -14 10 -31 16 -39z m5428 42 c13
-16 12 -17 -3 -4 -10 7 -18 15 -18 17 0 8 8 3 21 -13z m49 -73 c6 -11 8 -20 6
-20 -3 0 -10 9 -16 20 -6 11 -8 20 -6 20 3 0 10 -9 16 -20z m90 -20 c0 -5 -7
-10 -15 -10 -8 0 -15 -7 -15 -16 0 -11 5 -14 16 -10 14 5 15 0 9 -39 -3 -26
-23 -96 -42 -158 -20 -62 -36 -120 -35 -129 1 -31 -146 -312 -215 -408 -87
-121 -265 -300 -299 -300 -14 0 -53 14 -87 32 -34 17 -68 33 -75 34 -17 3
-102 73 -109 90 -10 27 20 53 126 109 146 77 257 162 375 286 131 138 248 316
306 469 7 19 18 41 23 48 11 14 37 16 37 2z m-5574 -162 c67 -112 115 -171
228 -283 172 -171 361 -289 571 -357 57 -18 110 -42 123 -55 21 -21 22 -25 8
-50 -8 -16 -25 -38 -38 -50 -41 -37 -187 -133 -203 -133 -22 0 -133 73 -227
148 -125 101 -279 280 -360 417 -16 28 -33 57 -38 65 -14 24 -117 253 -125
278 -5 17 -2 27 11 36 10 7 14 18 10 25 -6 9 -11 9 -22 0 -14 -11 -20 1 -7 14
16 17 34 3 69 -55z m5635 40 c11 -20 10 -21 -3 -11 -8 7 -18 10 -22 6 -4 -4
-4 0 0 10 8 22 11 22 25 -5z m16 -60 c-3 -7 -5 -2 -5 12 0 14 2 19 5 13 2 -7
2 -19 0 -25z m-37 -53 c0 -5 -5 -3 -10 5 -5 8 -10 20 -10 25 0 6 5 3 10 -5 5
-8 10 -19 10 -25z m-5707 2 c3 -8 -1 -14 -9 -14 -15 0 -18 9 -7 20 9 9 10 9
16 -6z m5751 -22 c5 -22 4 -26 -4 -15 -5 8 -10 24 -10 34 0 26 6 18 14 -19z
m-5777 -47 c-3 -8 -6 -5 -6 6 -1 11 2 17 5 13 3 -3 4 -12 1 -19z m5761 -43 c0
-16 -2 -15 -8 5 -4 14 -8 34 -8 45 0 16 2 15 8 -5 4 -14 8 -34 8 -45z m42 23
c0 -19 -16 -5 -17 14 -2 18 0 20 7 8 5 -8 10 -18 10 -22z m-5793 -50 c-3 -8
-6 -5 -6 6 -1 11 2 17 5 13 3 -3 4 -12 1 -19z m5760 -20 c-3 -8 -6 -5 -6 6 -1
11 2 17 5 13 3 -3 4 -12 1 -19z m-5771 -64 c-4 -20 -10 -34 -12 -31 -3 3 -2
21 2 41 3 21 9 35 11 32 3 -3 2 -21 -1 -42z m41 24 c-3 -8 -6 -5 -6 6 -1 11 2
17 5 13 3 -3 4 -12 1 -19z m-10 -80 c-3 -8 -6 -5 -6 6 -1 11 2 17 5 13 3 -3 4
-12 1 -19z m-50 -40 c-3 -8 -6 -5 -6 6 -1 11 2 17 5 13 3 -3 4 -12 1 -19z m53
7 c0 -8 -2 -15 -4 -15 -2 0 -6 7 -10 15 -3 8 -1 15 4 15 6 0 10 -7 10 -15z
m-25 -63 c-3 -3 -11 0 -18 7 -9 10 -8 11 6 5 10 -3 15 -9 12 -12z"/>
<path d="M639 4443 c-16 -4 -209 -388 -272 -543 -47 -113 -70 -197 -63 -223 6
-21 115 -112 123 -103 3 2 -14 21 -36 41 -42 38 -61 83 -61 142 0 24 7 37 32
54 l31 23 23 -30 c32 -39 30 -23 -2 26 -29 43 -26 62 7 42 19 -12 19 -12 4 17
-20 40 -19 64 4 85 21 19 31 16 68 -17 35 -31 36 -15 3 31 -37 52 -37 78 0
121 27 31 30 32 45 17 24 -24 28 -20 9 9 -24 37 -10 42 16 6 35 -51 44 -35 12
22 -23 41 -27 57 -20 76 l9 24 31 -29 31 -29 -25 40 c-34 55 -26 73 19 39 l35
-26 -22 42 c-21 41 -21 42 -3 86 10 24 21 44 26 44 4 0 7 5 7 10 0 10 -4 11
-31 3z"/>
<path d="M5123 4402 c33 -47 34 -48 21 -92 -8 -25 -14 -47 -14 -49 0 -2 10 9
22 25 12 16 23 31 25 33 2 3 8 0 13 -5 7 -7 5 -23 -5 -50 l-16 -39 24 29 c24
30 24 30 36 8 9 -17 7 -32 -10 -77 -25 -67 -20 -80 11 -30 27 44 38 39 15 -7
l-17 -33 25 30 25 30 36 -40 c20 -21 36 -45 36 -52 0 -8 -12 -37 -26 -66 l-26
-52 34 33 c40 38 62 40 83 8 12 -18 13 -30 5 -50 -14 -37 -13 -41 5 -26 24 20
30 3 12 -35 -22 -46 -22 -67 0 -35 9 14 18 27 19 29 2 2 20 -6 40 -18 28 -17
35 -18 31 -7 -18 47 -329 508 -380 564 -11 12 -29 22 -39 22 -15 0 -13 -7 15
-48z"/>
<path d="M5530 3786 c0 -48 -4 -60 -40 -105 -22 -28 -36 -51 -31 -51 14 0 111
110 111 126 0 18 -27 84 -34 84 -4 0 -6 -24 -6 -54z"/>
<path d="M5715 3354 c-46 -109 -177 -295 -287 -409 -122 -127 -209 -195 -353
-274 -60 -33 -116 -64 -123 -68 -22 -13 -3 -42 57 -82 74 -50 135 -81 162 -81
27 0 148 116 232 223 142 179 258 406 322 628 39 136 38 129 27 129 -5 0 -22
-30 -37 -66z m-15 -104 c0 -5 -4 -10 -10 -10 -5 0 -9 -4 -7 -9 1 -5 -1 -9 -5
-10 -8 -1 -8 6 -1 27 6 14 23 16 23 2z m-60 -159 c0 -5 -6 -14 -14 -20 -12
-10 -13 -8 -9 8 5 21 23 30 23 12z m-70 -45 c0 -3 -4 -8 -10 -11 -5 -3 -10 -1
-10 4 0 6 5 11 10 11 6 0 10 -2 10 -4z m50 0 c0 -2 -7 -7 -16 -10 -8 -3 -12
-2 -9 4 6 10 25 14 25 6z m-65 -63 l-28 -28 23 33 c12 18 24 31 27 28 3 -2 -7
-17 -22 -33z m-47 -13 c-7 -10 -14 -17 -17 -15 -4 4 18 35 25 35 2 0 -1 -9 -8
-20z m72 0 c0 -5 -5 -10 -11 -10 -5 0 -7 5 -4 10 3 6 8 10 11 10 2 0 4 -4 4
-10z m-60 -29 c0 -12 -31 -43 -37 -37 -3 2 4 13 14 24 21 24 23 25 23 13z m30
-21 c0 -5 -8 -10 -17 -10 -15 0 -16 2 -3 10 19 12 20 12 20 0z m-99 -23 c-10
-9 -11 -8 -5 6 3 10 9 15 12 12 3 -3 0 -11 -7 -18z m55 -22 c-9 -9 -16 -13
-16 -8 0 12 22 34 28 28 2 -2 -3 -11 -12 -20z m-106 1 c0 -3 -4 -8 -10 -11 -5
-3 -10 -1 -10 4 0 6 5 11 10 11 6 0 10 -2 10 -4z m60 -16 c0 -5 -5 -10 -11
-10 -5 0 -7 5 -4 10 3 6 8 10 11 10 2 0 4 -4 4 -10z m-96 -14 c-3 -8 2 -16 13
-19 14 -4 14 -5 -4 -6 -13 0 -23 -7 -24 -13 0 -10 -2 -10 -6 0 -2 6 -10 9 -16
5 -7 -4 -1 5 13 20 29 31 31 32 24 13z m66 10 c0 -2 -7 -6 -15 -10 -8 -3 -15
-1 -15 4 0 6 7 10 15 10 8 0 15 -2 15 -4z m61 -26 c5 0 9 5 9 10 0 6 5 10 10
10 6 0 -4 -22 -22 -49 -18 -27 -36 -47 -40 -45 -5 3 -8 -2 -8 -10 0 -9 -4 -16
-10 -16 -15 0 1 32 28 58 13 12 22 28 20 34 -2 6 -16 -1 -32 -18 -28 -28 -28
-28 -12 -2 14 21 14 27 4 31 -7 2 -5 3 5 1 10 -1 21 5 25 14 6 16 7 16 10 0 2
-10 8 -18 13 -18z m-104 -26 c-3 -3 -12 -4 -19 -1 -8 3 -5 6 6 6 11 1 17 -2
13 -5z m-93 -18 c-3 -8 -13 -17 -22 -21 -13 -5 -13 -2 3 15 21 24 26 25 19 6z
m14 -26 c-7 -11 -18 -20 -25 -20 -9 0 -7 6 5 19 23 26 35 26 20 1z m4 -42 c-7
-7 -12 -8 -12 -2 0 14 12 26 19 19 2 -3 -1 -11 -7 -17z m71 6 c-5 -13 -2 -15
17 -9 15 5 20 4 16 -4 -4 -6 -18 -11 -32 -11 -22 0 -23 3 -14 20 13 24 22 27
13 4z m-193 -26 c-13 -13 -19 -16 -15 -8 14 25 28 41 32 36 3 -3 -5 -15 -17
-28z m-57 -28 c-5 -19 -23 -29 -23 -12 0 7 20 32 26 32 1 0 0 -9 -3 -20z m67
0 c-6 -11 -13 -20 -16 -20 -2 0 0 9 6 20 6 11 13 20 16 20 2 0 0 -9 -6 -20z
m113 3 c-7 -3 -13 -12 -13 -20 0 -12 3 -13 14 -4 7 6 21 8 31 5 14 -6 16 -3
10 17 -4 16 -3 20 3 10 7 -9 12 -10 16 -2 4 6 12 11 19 11 6 0 2 -7 -9 -15
-10 -8 -15 -15 -11 -15 4 0 -6 -13 -23 -30 -16 -16 -30 -33 -30 -37 -1 -4 -18
-24 -38 -45 -29 -28 -41 -34 -57 -28 -17 7 -16 9 9 9 26 1 28 4 22 29 -5 22
-4 24 4 9 16 -24 33 -10 26 22 -3 14 -3 20 0 14 9 -20 18 -16 37 17 20 33 17
39 -7 14 -9 -8 -16 -11 -16 -5 0 6 -8 11 -17 11 -14 0 -15 2 -4 9 8 5 10 14 6
21 -5 8 -4 11 3 6 6 -3 14 -1 17 5 4 5 10 7 14 3 3 -4 0 -9 -6 -11z m-52 -16
c-10 -9 -11 -8 -5 6 3 10 9 15 12 12 3 -3 0 -11 -7 -18z m-96 3 c-3 -5 -12
-10 -18 -10 -7 0 -6 4 3 10 19 12 23 12 15 0z m48 -15 c-3 -9 -8 -14 -10 -11
-3 3 -2 9 2 15 9 16 15 13 8 -4z m-125 -16 c3 -11 2 -12 -6 0 -7 9 -12 10 -16
2 -4 -6 -12 -11 -18 -11 -6 0 -6 6 2 15 15 18 32 15 38 -6z m142 -9 c0 -5 -5
-10 -11 -10 -5 0 -7 5 -4 10 3 6 8 10 11 10 2 0 4 -4 4 -10z m-163 -13 c7 0
10 -4 7 -9 -3 -5 -10 -6 -15 -2 -5 3 -16 0 -24 -6 -11 -9 -15 -9 -15 -1 0 6
-7 11 -16 11 -8 0 -12 5 -9 10 3 6 18 7 33 3 15 -3 32 -6 39 -6z m113 -12 c25
-30 -11 -72 -51 -60 -43 14 -30 75 16 75 12 0 28 -7 35 -15z m-113 -61 c-3 -3
-12 -4 -19 -1 -8 3 -5 6 6 6 11 1 17 -2 13 -5z m80 -46 c2 6 17 12 31 11 l27
-1 -25 -8 -25 -8 24 -1 c32 -1 19 -14 -16 -16 -27 -1 -43 9 -43 30 0 6 5 3 11
-5 8 -11 12 -12 16 -2z"/>
<path d="M5124 2585 c-9 -22 22 -53 37 -38 15 15 7 47 -14 51 -9 2 -20 -4 -23
-13z"/>
<path d="M170 3298 c0 -19 116 -249 160 -318 118 -182 261 -339 420 -461 127
-98 141 -105 181 -89 18 8 69 49 113 92 97 93 98 91 -56 141 -226 76 -394 183
-583 372 -79 79 -148 158 -175 202 -43 69 -60 86 -60 61z m120 -171 c0 -6 -9
-2 -20 8 -11 10 -20 23 -20 28 0 6 9 2 20 -8 11 -10 20 -23 20 -28z m21 -54
c13 -16 12 -17 -3 -4 -10 7 -18 15 -18 17 0 8 8 3 21 -13z m104 -84 c18 -1 18
-2 2 -6 -10 -3 -27 3 -37 12 -12 11 -20 13 -25 6 -3 -6 -1 -11 4 -11 6 0 11
-5 11 -12 0 -7 -7 -5 -17 6 -13 13 -14 20 -6 23 7 2 9 12 6 21 -3 9 5 5 18
-10 14 -16 33 -29 44 -29z m35 -53 c0 -6 -5 -3 -11 7 -6 9 -15 14 -21 11 -7
-4 -8 -2 -4 5 9 14 36 -3 36 -23z m-10 -22 c0 -2 -9 0 -20 6 -11 6 -20 13 -20
16 0 2 9 0 20 -6 11 -6 20 -13 20 -16z m58 -14 c7 -11 11 -20 9 -20 -2 0 -12
9 -22 20 -10 11 -14 20 -9 20 5 0 15 -9 22 -20z m-60 -20 c7 -11 9 -20 4 -20
-10 0 -32 22 -32 32 0 15 15 8 28 -12z m82 -33 c10 -4 7 -6 -7 -6 -26 -1 -31
-16 -8 -25 8 -3 15 -11 14 -18 0 -10 -2 -10 -6 0 -2 6 -11 12 -19 12 -8 0 -14
6 -14 14 0 8 -8 17 -17 19 -14 4 -13 5 4 6 17 1 21 5 16 19 -5 16 -5 16 8 1 8
-9 21 -19 29 -22z m110 -27 c0 -5 -2 -10 -4 -10 -3 0 -8 5 -11 10 -3 6 -1 10
4 10 6 0 11 -4 11 -10z m-55 -12 c5 4 5 1 1 -5 -10 -18 -23 -16 -30 3 -5 13
-4 14 7 6 8 -7 18 -8 22 -4z m45 -18 c11 -11 16 -20 12 -20 -5 0 -17 9 -27 20
-10 11 -15 20 -12 20 4 0 16 -9 27 -20z m60 -5 c5 3 12 0 16 -6 4 -8 3 -9 -4
-5 -7 4 -12 2 -12 -4 0 -6 -4 -8 -10 -5 -5 3 -10 14 -9 23 0 11 2 12 6 4 2 -6
9 -10 13 -7z m-83 -11 c-3 -3 -12 -4 -19 -1 -8 3 -5 6 6 6 11 1 17 -2 13 -5z
m-57 -24 c0 -5 -4 -10 -10 -10 -5 0 -10 5 -10 10 0 6 5 10 10 10 6 0 10 -4 10
-10z m141 -16 c24 -26 24 -26 2 -15 -13 6 -23 16 -23 21 0 5 -8 11 -17 13 -14
4 -15 5 -2 6 8 0 26 -11 40 -25z m79 5 c12 -9 10 -10 -8 -6 -15 4 -22 1 -19
-6 3 -7 11 -11 18 -9 11 3 12 1 2 -9 -11 -10 -16 -9 -27 6 -11 15 -11 22 -3
27 16 10 19 10 37 -3z m-190 -19 c0 -5 7 -10 15 -10 8 0 15 -8 15 -17 0 -15
-2 -16 -10 -3 -5 8 -10 11 -10 7 0 -9 -30 18 -30 27 0 3 5 6 10 6 6 0 10 -4
10 -10z m105 -20 c10 -11 16 -20 13 -20 -3 0 -13 9 -23 20 -10 11 -16 20 -13
20 3 0 13 -9 23 -20z m125 -5 c14 -19 14 -19 -2 -6 -10 7 -18 18 -18 24 0 6 1
8 3 6 1 -2 9 -13 17 -24z m55 -6 c11 -16 1 -19 -13 -3 -7 8 -8 14 -3 14 5 0
13 -5 16 -11z m-188 -15 c9 -8 18 -32 19 -52 4 -35 3 -36 -11 -18 -8 11 -21
24 -27 29 -8 5 -4 6 11 2 17 -5 22 -4 19 6 -3 9 -16 13 -35 11 -21 -2 -30 1
-30 12 0 9 4 16 9 16 4 0 8 -4 8 -10 0 -5 5 -10 11 -10 6 0 9 7 5 15 -7 19 1
19 21 -1z m73 -36 c0 -2 -10 -4 -22 -5 -13 0 -18 1 -11 4 7 2 9 12 5 21 -5 16
-5 16 11 0 9 -9 17 -18 17 -20z m109 14 c11 -20 -2 -52 -13 -33 -4 6 -3 11 3
11 16 0 1 28 -17 33 -15 4 -15 5 0 6 10 0 22 -7 27 -17z m86 8 c3 -5 2 -10 -4
-10 -5 0 -17 -3 -27 -7 -16 -6 -17 -5 -4 10 17 19 26 21 35 7z m-145 -25 c11
-13 10 -14 -4 -9 -9 3 -16 10 -16 15 0 13 6 11 20 -6z m27 -7 c-3 -8 -6 -5 -6
6 -1 11 2 17 5 13 3 -3 4 -12 1 -19z m178 12 c3 -5 2 -10 -4 -10 -5 0 -13 5
-16 10 -3 6 -2 10 4 10 5 0 13 -4 16 -10z m71 -35 c13 -14 18 -25 13 -25 -6 0
-19 10 -30 23 -12 15 -18 17 -19 8 0 -8 8 -24 18 -35 13 -15 10 -14 -15 4 -28
22 -47 50 -24 35 5 -3 12 -1 16 5 9 15 15 13 41 -15z m-322 -1 c9 -24 4 -24
-18 -3 -16 16 -17 19 -4 19 9 0 19 -7 22 -16z m286 -41 c0 -8 -38 17 -51 33
-9 11 -2 9 19 -6 17 -13 32 -25 32 -27z m-272 -13 c6 0 13 -7 16 -16 5 -13 9
-14 20 -5 12 10 13 8 9 -8 -3 -12 -7 -21 -9 -21 -8 0 -94 87 -94 95 0 6 12 -2
25 -17 13 -16 28 -28 33 -28z m82 40 c0 -5 -7 -7 -15 -4 -8 4 -15 8 -15 10 0
2 7 4 15 4 8 0 15 -4 15 -10z m110 -9 c14 -27 3 -50 -27 -57 -34 -9 -58 16
-49 50 5 21 12 26 36 26 19 0 33 -7 40 -19z m-170 -11 c0 -5 -2 -10 -4 -10 -3
0 -8 5 -11 10 -3 6 -1 10 4 10 6 0 11 -4 11 -10z m50 -6 c0 -2 -7 -4 -15 -4
-8 0 -15 4 -15 10 0 5 7 7 15 4 8 -4 15 -8 15 -10z m209 -25 c-17 -11 -49 -12
-49 -1 0 4 14 8 31 8 22 1 27 -1 18 -7z m-179 -47 c0 -2 -5 0 -11 4 -6 3 -15
1 -19 -6 -5 -9 -9 -9 -14 -1 -4 6 -3 11 3 11 6 0 8 7 4 16 -5 14 -3 13 15 -2
12 -10 22 -20 22 -22z m100 -12 c0 -5 -2 -10 -4 -10 -3 0 -8 5 -11 10 -3 6 -1
10 4 10 6 0 11 -4 11 -10z m-57 -27 c-7 -2 -19 -2 -25 0 -7 3 -2 5 12 5 14 0
19 -2 13 -5z"/>
<path d="M891 2572 c-12 -23 2 -47 23 -39 23 9 32 37 15 48 -20 13 -27 11 -38
-9z"/>
<path d="M563 3630 c-22 -9 -23 -14 -23 -135 0 -110 -2 -125 -17 -125 -15 0
-15 -1 0 -18 13 -15 17 -39 17 -114 0 -87 -2 -96 -20 -101 -11 -3 -20 -12 -20
-21 0 -14 18 -16 138 -15 78 0 152 5 172 12 103 36 108 199 8 241 l-28 12 23
13 c35 19 57 63 57 115 0 94 -51 140 -154 138 -33 0 -70 -2 -81 -3 -11 -1 -27
1 -35 4 -8 3 -25 2 -37 -3z m176 -39 c42 -42 49 -135 15 -188 -12 -18 -24 -23
-59 -23 l-45 0 0 109 c0 78 4 111 13 114 27 11 58 6 76 -12z m30 -277 c26 -33
29 -118 5 -152 -12 -18 -25 -22 -70 -22 l-54 0 0 100 0 100 49 0 c42 0 53 -4
70 -26z"/>
<path d="M1110 3629 c0 -5 5 -9 10 -9 6 0 10 -47 10 -120 0 -100 -2 -120 -15
-120 -8 0 -15 -4 -15 -9 0 -5 7 -11 15 -15 12 -4 15 -26 15 -110 0 -95 -2
-104 -20 -109 -11 -3 -20 -12 -20 -21 0 -14 15 -16 95 -16 80 0 95 2 95 16 0
9 -9 18 -20 21 -26 7 -32 31 -28 128 3 77 4 80 28 80 22 0 26 -8 51 -92 33
-116 49 -140 95 -149 53 -10 83 24 91 99 5 49 3 57 -11 57 -9 0 -16 -8 -16
-19 0 -24 -13 -33 -34 -25 -14 6 -86 110 -86 125 0 4 13 9 29 12 98 20 127
154 50 233 -43 45 -98 60 -162 45 -27 -6 -54 -8 -60 -4 -17 11 -97 12 -97 2z
m220 -49 c35 -19 52 -109 29 -153 -17 -32 -28 -37 -81 -37 l-48 0 0 84 c0 64
4 88 16 100 17 18 56 21 84 6z"/>
<path d="M2050 3631 c0 -5 7 -11 15 -15 23 -8 22 -246 -1 -246 -14 0 -14 -2 0
-22 12 -16 16 -47 16 -114 0 -83 -2 -92 -20 -97 -11 -3 -20 -12 -20 -21 0 -25
259 -23 316 3 80 37 100 155 35 213 -17 15 -38 28 -46 28 -9 0 1 14 23 34 35
33 37 37 37 100 0 58 -3 68 -29 95 -35 36 -110 57 -164 45 -20 -4 -44 -7 -52
-6 -53 9 -110 10 -110 3z m234 -52 c21 -25 26 -41 26 -85 0 -30 -7 -68 -15
-84 -14 -27 -20 -30 -65 -30 l-50 0 0 105 c0 88 3 106 18 114 31 18 60 12 86
-20z m26 -271 c24 -39 26 -98 4 -139 -14 -29 -18 -30 -72 -27 l-57 3 -3 98 -3
97 56 0 c52 0 57 -2 75 -32z"/>
<path d="M2760 3632 c0 -3 7 -10 16 -16 14 -11 12 -24 -18 -124 -26 -87 -37
-112 -50 -112 -20 0 -23 -11 -7 -27 8 -8 3 -38 -17 -108 -22 -76 -33 -100 -51
-108 -13 -6 -23 -16 -23 -24 0 -10 18 -13 70 -13 54 0 70 3 70 14 0 8 -9 18
-21 21 -23 8 -23 20 7 121 13 46 18 53 30 43 8 -7 38 -13 67 -14 l51 -2 18
-59 c22 -75 22 -77 -3 -89 -43 -20 -18 -30 76 -33 75 -2 95 0 95 11 0 8 -10
18 -23 24 -18 8 -29 32 -51 108 -20 70 -25 100 -17 108 16 16 14 25 -6 29 -12
2 -26 35 -50 113 -28 96 -31 111 -18 121 8 6 15 13 15 16 0 2 -36 4 -80 4 -44
0 -80 -2 -80 -4z m81 -200 c11 -43 11 -55 0 -61 -10 -6 -9 -10 3 -14 9 -4 16
-16 16 -27 0 -28 -42 -27 -73 3 l-24 22 24 79 c27 86 32 86 54 -2z"/>
<path d="M3290 3629 c0 -5 5 -9 10 -9 6 0 10 -47 10 -120 0 -100 -2 -120 -15
-120 -8 0 -15 -4 -15 -9 0 -5 7 -11 15 -15 12 -4 15 -26 15 -110 0 -95 -2
-104 -20 -109 -11 -3 -20 -12 -20 -21 0 -14 15 -16 95 -16 80 0 95 2 95 16 0
9 -9 18 -20 21 -26 7 -32 31 -28 128 3 77 4 80 28 80 22 0 26 -8 51 -92 33
-116 49 -140 95 -149 53 -10 83 24 91 99 5 49 3 57 -11 57 -9 0 -16 -8 -16
-19 0 -24 -13 -33 -34 -25 -14 6 -86 110 -86 125 0 4 13 9 29 12 98 20 127
154 50 233 -43 45 -98 60 -162 45 -27 -6 -54 -8 -60 -4 -17 11 -97 12 -97 2z
m220 -49 c35 -19 52 -109 29 -153 -17 -32 -28 -37 -81 -37 l-48 0 0 84 c0 64
4 88 16 100 17 18 56 21 84 6z"/>
<path d="M3900 3631 c0 -5 7 -11 15 -15 23 -8 22 -246 -1 -246 -14 0 -14 -2 0
-22 12 -16 16 -47 16 -114 0 -83 -2 -92 -20 -97 -11 -3 -20 -12 -20 -21 0 -25
259 -23 316 3 80 37 100 155 35 213 -17 15 -38 28 -46 28 -9 0 1 14 23 34 35
33 37 37 37 100 0 58 -3 68 -29 95 -35 36 -110 57 -164 45 -20 -4 -44 -7 -52
-6 -53 9 -110 10 -110 3z m234 -52 c21 -25 26 -41 26 -85 0 -30 -7 -68 -15
-84 -14 -27 -20 -30 -65 -30 l-50 0 0 105 c0 88 3 106 18 114 31 18 60 12 86
-20z m26 -271 c24 -39 26 -98 4 -139 -14 -29 -18 -30 -72 -27 l-57 3 -3 98 -3
97 56 0 c52 0 57 -2 75 -32z"/>
<path d="M4490 3633 c0 -3 7 -11 15 -19 12 -12 15 -41 15 -126 0 -104 -1 -110
-21 -115 -21 -6 -21 -7 -3 -20 13 -10 19 -30 22 -78 6 -87 -3 -131 -28 -138
-11 -3 -20 -12 -20 -21 0 -14 22 -16 175 -16 132 0 177 3 180 13 2 6 5 47 8
90 3 56 1 77 -8 77 -7 0 -18 -13 -25 -30 -7 -16 -32 -48 -56 -70 -36 -33 -51
-40 -84 -40 l-40 0 0 101 0 100 48 -3 c41 -3 47 -6 50 -27 2 -13 -2 -28 -10
-32 -9 -6 -7 -9 9 -9 41 0 69 50 42 77 -8 8 -8 17 0 31 16 30 14 49 -9 72 -24
24 -60 29 -41 6 7 -8 11 -27 9 -43 -3 -26 -7 -28 -50 -31 l-48 -3 0 105 0 106
42 0 c51 0 100 -34 128 -91 34 -65 47 -52 42 44 -2 45 -5 83 -6 83 -3 4 -336
10 -336 7z"/>
<path d="M5070 3634 c0 -3 7 -12 15 -20 11 -12 15 -40 15 -119 0 -88 -3 -105
-17 -114 -17 -9 -17 -10 0 -28 13 -15 17 -38 17 -104 0 -88 -4 -101 -32 -112
-10 -3 -18 -13 -18 -22 0 -12 16 -15 95 -15 80 0 95 2 95 16 0 9 -9 18 -20 21
-18 5 -20 14 -20 109 0 98 1 104 20 104 23 0 29 -12 60 -119 31 -107 82 -152
140 -121 22 12 40 61 40 111 0 44 -16 51 -30 14 -5 -14 -13 -25 -18 -25 -14 0
-59 53 -81 96 l-20 42 34 6 c66 13 109 98 85 170 -15 45 -79 103 -125 112 -19
3 -56 1 -81 -5 -27 -7 -51 -8 -57 -3 -13 9 -97 14 -97 6z m240 -76 c12 -21 20
-51 20 -80 0 -64 -24 -88 -85 -88 l-45 0 0 88 c0 98 7 112 57 112 27 0 37 -6
53 -32z"/>
<path d="M1739 3197 c-47 -24 -31 -107 22 -107 24 0 59 34 59 58 0 17 -19 40
-46 55 -5 3 -21 0 -35 -6z"/>
</g>
</svg>
