<?xml version="1.0" standalone="no"?>
<!DOCTYPE svg PUBLIC "-//W3C//DTD SVG 20010904//EN"
 "http://www.w3.org/TR/2001/REC-SVG-20010904/DTD/svg10.dtd">
<svg version="1.0" xmlns="http://www.w3.org/2000/svg"
 width="600" height="600" viewBox="0 0 600 600"
 preserveAspectRatio="xMidYMid meet">

<g transform="translate(0,600) scale(0.100000,-0.100000)"
fill="#f0f0f0" stroke="none">
<path d="M240 4595 l0 -25 2775 0 2775 0 0 25 0 25 -2775 0 -2775 0 0 -25z"/>
<path d="M4899 4546 c-51 -18 -98 -49 -138 -90 -30 -31 -33 -37 -20 -53 14
-18 631 -727 653 -751 10 -10 25 -7 79 18 40 19 74 29 86 25 10 -3 41 -31 67
-61 l47 -56 -12 -51 c-18 -82 -92 -253 -154 -359 -115 -196 -224 -317 -389
-435 -80 -56 -118 -98 -118 -129 0 -33 45 -84 102 -114 121 -65 230 -94 266
-72 21 14 155 196 204 279 26 44 63 115 82 160 47 111 118 364 125 448 8 97
27 98 65 3 40 -102 71 -148 99 -148 61 0 61 51 1 153 -27 48 -50 103 -58 140
-10 46 -28 84 -67 142 -30 44 -57 82 -62 83 -4 2 -34 43 -66 90 -83 124 -157
209 -407 474 -320 336 -312 330 -385 304z m209 -153 c318 -329 444 -489 425
-541 -7 -19 -71 -113 -103 -152 l-20 -25 -28 31 c-606 694 -624 715 -612 729
17 20 111 82 135 88 60 15 66 10 203 -130z m476 -566 c-28 -54 -77 -117 -91
-117 -18 0 -17 7 11 43 40 54 58 98 53 130 l-4 31 23 -28 c23 -26 23 -28 8
-59z m56 -48 c-14 -24 -20 -24 -13 0 3 10 0 30 -7 42 l-11 24 20 -23 c16 -19
18 -28 11 -43z m40 -34 c0 -5 -5 -3 -10 5 -5 8 -10 20 -10 25 0 6 5 3 10 -5 5
-8 10 -19 10 -25z m-117 -22 c-7 -2 -19 -2 -25 0 -7 3 -2 5 12 5 14 0 19 -2
13 -5z m48 -20 c13 -16 12 -17 -3 -4 -10 7 -18 15 -18 17 0 8 8 3 21 -13z
m144 -63 c3 -5 -3 -10 -15 -10 -13 0 -20 -5 -17 -12 2 -7 12 -12 21 -12 20 2
21 -42 5 -166 -16 -128 -18 -141 -24 -194 -14 -126 -131 -413 -231 -570 -68
-104 -152 -206 -172 -206 -9 0 -46 10 -82 21 -36 11 -73 22 -83 24 -9 2 -41
17 -70 32 -55 30 -70 60 -45 90 7 9 47 41 88 72 275 202 483 513 565 846 22
86 42 115 60 85z m75 -105 c10 -12 10 -15 -4 -15 -9 0 -16 7 -16 15 0 8 2 15
4 15 2 0 9 -7 16 -15z m27 -57 c-3 -8 -6 -5 -6 6 -1 11 2 17 5 13 3 -3 4 -12
1 -19z m10 -70 c-3 -8 -6 -5 -6 6 -1 11 2 17 5 13 3 -3 4 -12 1 -19z m-10 -60
c-3 -8 -6 -5 -6 6 -1 11 2 17 5 13 3 -3 4 -12 1 -19z m57 -27 c-6 -6 -11 1
-18 29 l-7 25 15 -25 c8 -14 12 -27 10 -29z m-25 -46 c0 -5 -4 -3 -9 5 -5 8
-9 22 -9 30 0 16 17 -16 18 -35z m24 -45 c3 -11 1 -18 -4 -14 -5 3 -9 12 -9
20 0 20 7 17 13 -6z"/>
<path d="M4924 4494 c-6 -2 7 -24 29 -47 36 -39 38 -45 32 -84 -7 -51 -1 -54
21 -12 22 43 39 25 25 -27 -13 -47 -5 -59 10 -16 12 36 21 39 39 17 10 -12 10
-28 1 -72 -16 -79 -14 -84 15 -33 l25 45 -5 -35 c-4 -31 -4 -32 6 -12 15 30
26 28 73 -12 l39 -33 -18 -58 c-9 -31 -15 -59 -13 -61 3 -3 15 11 27 30 24 40
48 45 75 16 13 -15 16 -30 12 -62 -4 -35 -3 -39 6 -20 23 49 35 16 17 -47 -12
-44 -4 -54 11 -13 12 36 22 38 62 18 15 -8 27 -11 27 -6 0 25 -473 531 -495
529 -5 0 -15 -3 -21 -5z"/>
<path d="M5458 3897 c4 -50 1 -63 -28 -114 -26 -46 -28 -54 -11 -39 11 10 35
41 52 67 34 53 34 78 1 119 -19 23 -19 23 -14 -33z"/>
<path d="M5726 3558 c-2 -7 -12 -42 -22 -78 -22 -83 -97 -254 -152 -347 -96
-164 -272 -358 -407 -450 -33 -22 -68 -50 -78 -61 -18 -19 -17 -20 12 -41 45
-32 154 -80 198 -87 35 -5 42 -2 72 28 53 54 148 204 211 333 68 142 120 298
150 450 23 119 37 265 26 265 -4 0 -8 -6 -10 -12z m-36 -202 l-22 -21 18 35
c10 21 19 30 22 21 2 -7 -6 -23 -18 -35z m-17 -85 c-3 -11 -11 -22 -19 -25
-11 -4 -11 0 2 19 20 30 24 31 17 6z m-3 -72 c-18 -32 -22 -19 -11 29 1 2 6 0
11 -3 7 -4 7 -13 0 -26z m-40 -13 c0 -2 -7 -7 -16 -10 -8 -3 -12 -2 -9 4 6 10
25 14 25 6z m20 -26 c0 -5 -5 -10 -11 -10 -5 0 -7 5 -4 10 3 6 8 10 11 10 2 0
4 -4 4 -10z m-40 -4 c0 -3 -4 -8 -10 -11 -5 -3 -10 -1 -10 4 0 6 5 11 10 11 6
0 10 -2 10 -4z m20 -26 c0 -5 -5 -10 -11 -10 -5 0 -7 5 -4 10 3 6 8 10 11 10
2 0 4 -4 4 -10z m-55 -39 c-3 -6 -11 -11 -17 -11 -6 0 -6 6 2 15 14 17 26 13
15 -4z m54 3 c16 10 14 -6 -4 -30 -8 -12 -12 -24 -8 -27 3 -4 -2 -9 -11 -13
-9 -3 -16 -12 -16 -20 0 -8 -4 -14 -10 -14 -13 0 -1 30 22 54 20 22 22 32 8
41 -5 3 -10 12 -10 18 0 8 3 7 9 -2 5 -7 14 -10 20 -7z m-49 -44 c0 -5 -5 -10
-11 -10 -5 0 -7 5 -4 10 3 6 8 10 11 10 2 0 4 -4 4 -10z m-10 -24 c0 -3 -4 -8
-10 -11 -5 -3 -10 -1 -10 4 0 6 5 11 10 11 6 0 10 -2 10 -4z m-100 -66 c0 -5
-5 -10 -11 -10 -5 0 -7 5 -4 10 3 6 8 10 11 10 2 0 4 -4 4 -10z m67 -6 c-3 -3
-12 -4 -19 -1 -8 3 -5 6 6 6 11 1 17 -2 13 -5z m-56 -27 c-10 -9 -11 -8 -5 6
3 10 9 15 12 12 3 -3 0 -11 -7 -18z m39 3 c0 -5 -5 -10 -11 -10 -5 0 -7 5 -4
10 3 6 8 10 11 10 2 0 4 -4 4 -10z m48 1 c10 -6 9 -15 -5 -42 -10 -19 -22 -37
-28 -41 -7 -5 -7 -8 0 -8 6 0 3 -5 -5 -10 -8 -5 -15 -14 -15 -20 0 -6 -7 -15
-15 -20 -8 -5 -11 -10 -7 -10 5 0 -2 -14 -15 -32 -12 -18 -23 -39 -25 -46 -3
-23 -20 -35 -28 -21 -5 8 -4 10 3 5 8 -5 12 0 12 13 0 10 -4 21 -9 23 -4 2 -5
12 0 23 7 19 8 19 8 -3 1 -13 5 -20 11 -17 6 4 8 16 5 28 -2 12 -2 16 1 9 7
-16 24 -6 24 15 0 10 -6 13 -16 9 -13 -5 -14 -4 -6 7 7 8 9 16 6 19 -3 3 -1 9
5 13 6 3 11 -1 11 -9 0 -25 15 -19 30 12 8 15 22 39 32 54 23 33 23 49 1 41
-11 -4 -14 -3 -9 5 8 14 16 15 34 3z m-134 -35 c-5 -14 -9 -15 -15 -5 -5 8 -3
17 4 21 15 9 19 4 11 -16z m24 -16 c-7 -11 -15 -15 -17 -9 -2 6 3 15 10 20 20
12 21 11 7 -11z m62 0 c0 -5 -5 -10 -11 -10 -5 0 -7 5 -4 10 3 6 8 10 11 10 2
0 4 -4 4 -10z m-49 -23 c-10 -9 -11 -8 -5 6 3 10 9 15 12 12 3 -3 0 -11 -7
-18z m-101 -17 c-24 -15 -36 -11 -14 4 10 8 21 12 24 10 2 -3 -2 -9 -10 -14z
m20 -20 c0 -5 -5 -10 -11 -10 -5 0 -7 5 -4 10 3 6 8 10 11 10 2 0 4 -4 4 -10z
m5 -42 c-10 -13 -14 -16 -11 -8 3 8 9 24 13 35 4 11 8 14 11 7 2 -6 -4 -22
-13 -34z m-55 2 c0 -5 -5 -10 -11 -10 -5 0 -7 5 -4 10 3 6 8 10 11 10 2 0 4
-4 4 -10z m-37 -7 c-7 -2 -13 -11 -13 -18 0 -8 -5 -17 -12 -21 -6 -4 -9 -3 -6
2 3 5 8 17 11 27 4 9 12 17 19 16 10 0 10 -2 1 -6z m48 -16 c-10 -9 -11 -8 -5
6 3 10 9 15 12 12 3 -3 0 -11 -7 -18z m65 -3 c-4 -9 -9 -15 -11 -12 -3 3 -3
13 1 22 4 9 9 15 11 12 3 -3 3 -13 -1 -22z m-86 2 c0 -2 -7 -7 -16 -10 -8 -3
-12 -2 -9 4 6 10 25 14 25 6z m-96 -38 c-5 -8 0 -9 14 -6 12 4 20 2 16 -3 -3
-5 -17 -9 -31 -9 -21 0 -24 2 -13 15 15 18 24 20 14 3z m94 -8 c-7 -11 -15
-15 -17 -9 -2 6 3 15 10 20 20 12 21 11 7 -11z m82 16 c0 -2 -7 -7 -16 -10 -8
-3 -12 -2 -9 4 6 10 25 14 25 6z m-211 -59 c0 -8 -3 -7 -6 2 -4 11 -7 11 -14
0 -4 -7 -11 -10 -16 -6 -9 9 17 28 29 21 4 -3 8 -11 7 -17z m146 13 c-3 -5
-11 -10 -16 -10 -6 0 -7 5 -4 10 3 6 11 10 16 10 6 0 7 -4 4 -10z m-43 -46
c11 -22 10 -28 -7 -40 -34 -25 -75 -11 -75 26 0 45 63 55 82 14z m45 4 c-3 -8
-6 -5 -6 6 -1 11 2 17 5 13 3 -3 4 -12 1 -19z m73 12 c0 -5 -5 -10 -11 -10 -5
0 -7 5 -4 10 3 6 8 10 11 10 2 0 4 -4 4 -10z m-294 -27 c-10 -10 -19 5 -10 18
6 11 8 11 12 0 2 -7 1 -15 -2 -18z m30 2 c-14 -14 -16 -14 -16 -2 0 9 6 17 13
20 19 7 21 -1 3 -18z m224 11 c0 -8 -7 -16 -15 -20 -12 -4 -13 -2 -2 14 14 24
17 25 17 6z m18 -28 c-9 -13 -26 -25 -39 -26 -13 -2 -20 0 -16 4 4 4 15 9 24
10 9 2 20 10 25 18 5 9 12 16 15 16 3 0 -1 -10 -9 -22z m-225 -5 c-23 -8 -14
-31 10 -26 18 4 19 3 7 -6 -25 -18 -50 -14 -43 7 9 25 25 43 32 36 3 -4 0 -9
-6 -11z m-33 -9 c0 -2 -12 -4 -27 -4 -21 0 -24 3 -14 9 13 8 41 5 41 -5z m70
-44 c0 -5 -5 -10 -11 -10 -5 0 -7 5 -4 10 3 6 8 10 11 10 2 0 4 -4 4 -10z
m120 -5 c0 -9 -12 -20 -26 -26 -33 -12 -38 -8 -18 17 8 10 13 13 9 7 -3 -7 -2
-13 3 -13 6 0 12 7 16 15 7 19 16 19 16 0z"/>
<path d="M5247 2644 c-13 -13 -7 -42 10 -48 21 -8 36 6 31 30 -3 19 -29 30
-41 18z"/>
<path d="M593 4481 c-34 -21 -50 -53 -268 -515 -76 -162 -133 -298 -162 -390
-25 -77 -50 -150 -55 -161 -29 -53 -51 -165 -53 -270 -1 -60 -7 -128 -13 -150
-15 -53 -15 -118 0 -133 16 -16 53 -15 67 2 6 7 16 51 22 97 18 143 20 149 33
149 6 0 23 -28 37 -62 14 -35 65 -124 114 -198 69 -107 114 -160 209 -255 139
-138 312 -265 362 -265 40 0 109 46 195 131 58 58 68 73 74 113 6 40 4 50 -14
70 -12 13 -48 32 -79 41 -106 33 -257 96 -325 137 -173 101 -394 312 -494 470
l-25 41 27 68 c14 37 33 73 41 80 10 8 37 10 92 5 l77 -6 194 457 c107 252
196 467 199 479 4 23 -29 43 -116 69 -64 20 -101 19 -139 -4z m185 -37 c37
-15 42 -21 38 -40 -3 -12 -85 -208 -182 -435 -97 -227 -180 -423 -185 -436 -9
-24 -9 -24 -40 -6 -17 10 -56 38 -87 63 -49 39 -57 51 -60 83 -6 73 50 217
220 568 65 135 108 211 122 218 28 15 121 7 174 -15z m-470 -876 c51 -39 59
-48 40 -48 -13 0 -32 -2 -43 -4 -11 -2 -14 -1 -7 1 19 7 14 23 -10 32 -13 5
-38 25 -55 45 -30 32 -32 38 -21 61 l12 26 10 -32 c7 -21 33 -49 74 -81z
m-113 3 c0 -27 -3 -37 -12 -34 -7 3 -13 6 -13 8 0 4 22 65 24 65 1 0 1 -17 1
-39z m48 -106 c-3 -9 -8 -14 -10 -11 -3 3 -2 9 2 15 9 16 15 13 8 -4z m-26
-177 c188 -289 487 -519 794 -612 53 -16 94 -35 109 -51 l22 -24 -20 -33 c-20
-32 -82 -95 -82 -83 0 3 -28 -15 -62 -40 -35 -25 -73 -48 -85 -51 -39 -10
-244 142 -371 275 -76 80 -208 251 -230 300 -10 20 -21 39 -26 42 -5 4 -5 12
-1 19 5 9 4 11 -3 6 -7 -4 -14 4 -18 21 -4 15 -29 72 -56 126 -54 108 -69 160
-47 155 8 -2 14 4 14 12 0 8 -8 14 -17 14 -10 -1 -18 2 -18 7 0 5 8 9 19 9 12
0 38 -31 78 -92z m-120 -50 c-15 -9 -19 -4 -11 16 5 14 9 15 15 5 5 -8 3 -17
-4 -21z m-20 -50 c-3 -8 -6 -5 -6 6 -1 11 2 17 5 13 3 -3 4 -12 1 -19z m10
-70 c-3 -8 -6 -5 -6 6 -1 11 2 17 5 13 3 -3 4 -12 1 -19z m34 -5 c-12 -20 -14
-14 -5 12 4 9 9 14 11 11 3 -2 0 -13 -6 -23z m-51 -100 c-11 -17 -11 -17 -6 0
3 10 7 28 7 40 2 22 2 22 6 0 2 -12 -1 -30 -7 -40z m-13 -85 c-3 -8 -6 -5 -6
6 -1 11 2 17 5 13 3 -3 4 -12 1 -19z m53 12 c0 -5 -2 -10 -4 -10 -3 0 -8 5
-11 10 -3 6 -1 10 4 10 6 0 11 -4 11 -10z m-25 -68 c-3 -3 -11 0 -18 7 -9 10
-8 11 6 5 10 -3 15 -9 12 -12z"/>
<path d="M624 4432 c-25 -15 -281 -553 -300 -627 l-7 -28 31 23 32 24 27 -25
c27 -25 24 -15 -9 33 -24 35 -14 56 14 31 21 -18 21 -18 4 14 -21 42 -20 66 2
86 24 22 29 22 64 -8 42 -36 46 -24 9 27 -38 52 -38 73 -1 117 l30 35 27 -25
27 -24 -22 32 c-34 48 -26 51 19 8 l42 -40 -28 50 c-16 28 -32 55 -36 60 -7
10 6 55 16 55 3 0 19 -15 36 -32 l31 -33 -26 40 c-25 38 -34 75 -19 75 4 0 20
-12 36 -27 l29 -28 -22 45 -22 46 25 52 c24 49 20 64 -9 44z"/>
<path d="M301 3732 c-7 -24 -11 -51 -9 -60 3 -17 102 -102 119 -102 6 0 -9 19
-34 43 -38 38 -46 52 -54 103 l-9 59 -13 -43z"/>
<path d="M160 3293 c0 -25 114 -246 177 -342 31 -47 83 -119 115 -159 112
-136 312 -315 406 -363 l44 -21 53 37 c63 43 158 141 153 156 -2 7 -58 31
-125 54 -207 72 -352 156 -519 303 -89 77 -206 211 -263 300 -36 56 -41 61
-41 35z m120 -176 c0 -6 -9 -2 -20 8 -11 10 -20 23 -20 28 0 6 9 2 20 -8 11
-10 20 -23 20 -28z m67 -124 c-9 -8 34 -39 48 -35 6 2 5 -2 -1 -8 -9 -9 -18
-5 -38 13 -28 26 -32 37 -14 37 6 0 8 -3 5 -7z m60 -19 c-3 -3 -12 -4 -19 -1
-8 3 -5 6 6 6 11 1 17 -2 13 -5z m22 -90 c-8 -10 -8 -14 0 -14 6 0 11 -5 11
-10 0 -6 -8 -5 -20 2 -24 15 -26 28 -4 28 9 0 12 5 8 12 -4 7 -3 8 5 4 9 -6 9
-11 0 -22z m61 11 c7 -9 11 -17 8 -20 -2 -2 -12 4 -21 15 -9 11 -13 20 -8 20
5 0 14 -7 21 -15z m20 -55 c0 -5 -7 -10 -16 -10 -14 0 -14 -1 0 -16 19 -18 19
-24 5 -44 -9 -13 -10 -12 -5 3 6 18 -24 56 -46 58 -7 1 -2 5 12 9 36 11 50 11
50 0z m53 -44 c7 3 5 0 -4 -8 -9 -7 -14 -20 -11 -28 3 -8 1 -11 -4 -7 -5 5 -9
22 -10 40 -2 24 0 27 8 14 5 -10 15 -15 21 -11z m57 14 c0 -5 -2 -10 -4 -10
-3 0 -8 5 -11 10 -3 6 -1 10 4 10 6 0 11 -4 11 -10z m40 -23 c13 -11 25 -37
17 -37 -2 0 -13 11 -25 25 -23 26 -18 33 8 12z m-73 -23 c-3 -3 -12 -4 -19 -1
-8 3 -5 6 6 6 11 1 17 -2 13 -5z m-57 -24 c0 -5 -2 -10 -4 -10 -3 0 -8 5 -11
10 -3 6 -1 10 4 10 6 0 11 -4 11 -10z m34 -15 c-4 -18 -2 -25 9 -25 8 0 17 -7
21 -15 8 -21 -1 -19 -31 9 -22 21 -24 26 -12 40 19 21 20 20 13 -9z m44 13
c-2 -6 -10 -13 -16 -14 -7 -1 -8 0 -2 3 5 2 8 9 4 14 -3 5 0 9 6 9 7 0 10 -5
8 -12z m52 -3 c7 -8 9 -15 6 -15 -4 0 -14 7 -22 15 -9 8 -11 15 -6 15 5 0 15
-7 22 -15z m64 -21 c5 -14 4 -15 -9 -4 -17 14 -19 20 -6 20 5 0 12 -7 15 -16z
m-4 -34 c6 -11 8 -20 6 -20 -3 0 -10 9 -16 20 -6 11 -8 20 -6 20 3 0 10 -9 16
-20z m134 -19 c-4 -3 -9 0 -11 7 -3 6 -11 12 -19 12 -9 0 -12 5 -9 11 5 7 14
4 26 -7 11 -9 16 -20 13 -23z m-198 10 c-3 -5 0 -11 8 -14 9 -4 14 -20 14 -43
0 -25 -3 -32 -9 -23 -4 8 -6 24 -3 36 6 21 4 22 -25 17 -26 -6 -31 -3 -30 12
0 11 3 14 6 7 2 -7 9 -13 15 -13 6 0 8 7 4 15 -3 9 0 15 10 15 8 0 13 -4 10
-9z m129 -11 c3 -5 1 -10 -4 -10 -6 0 -11 5 -11 10 0 6 2 10 4 10 3 0 8 -4 11
-10z m126 -22 c-13 -5 -26 -6 -29 -3 -3 3 0 5 7 5 8 0 11 7 7 15 -5 13 -2 14
16 4 l22 -12 -23 -9z m-193 -11 c-11 -4 -23 -5 -26 -2 -3 3 0 5 7 5 8 0 11 7
7 15 -4 12 -2 13 14 3 19 -12 19 -13 -2 -21z m123 16 c13 -16 12 -17 -3 -4
-10 7 -18 15 -18 17 0 8 8 3 21 -13z m-61 -13 c0 -5 -2 -10 -4 -10 -3 0 -8 5
-11 10 -3 6 -1 10 4 10 6 0 11 -4 11 -10z m27 -12 c-3 -8 -6 -5 -6 6 -1 11 2
17 5 13 3 -3 4 -12 1 -19z m179 10 c5 -8 2 -9 -10 -5 -14 6 -17 3 -12 -10 6
-14 4 -15 -5 -6 -12 12 -5 33 11 33 5 0 12 -5 16 -12z m-146 -19 c0 -6 -4 -7
-10 -4 -5 3 -10 11 -10 16 0 6 5 7 10 4 6 -3 10 -11 10 -16z m205 1 c4 -6 11
-8 16 -5 5 3 6 -2 2 -11 -4 -12 -3 -15 5 -10 7 4 12 2 12 -3 0 -6 -7 -11 -15
-11 -8 0 -15 6 -15 14 0 8 -7 16 -15 20 -8 3 -15 1 -15 -4 0 -6 -7 -10 -15
-10 -8 0 -15 5 -15 11 0 5 4 8 9 4 5 -3 12 -1 16 5 3 5 10 10 15 10 5 0 12 -5
15 -10z m-329 -9 c-18 -7 -18 -8 -1 -25 10 -9 15 -20 12 -23 -3 -3 -13 2 -22
11 -20 20 -13 46 12 45 17 0 16 -1 -1 -8z m51 3 c-3 -3 -12 -4 -19 -1 -8 3 -5
6 6 6 11 1 17 -2 13 -5z m167 -23 c23 -25 13 -59 -21 -67 -33 -9 -58 16 -49
49 5 22 15 30 47 36 3 0 14 -8 23 -18z m-104 0 c0 -6 -5 -13 -12 -17 -6 -4 -8
-3 -4 4 3 5 0 13 -6 15 -8 3 -6 6 5 6 9 1 17 -3 17 -8z m200 -35 c20 -25 4
-18 -27 10 -20 19 -22 24 -7 16 11 -6 26 -18 34 -26z m-260 14 c0 -5 -2 -10
-4 -10 -3 0 -8 5 -11 10 -3 6 -1 10 4 10 6 0 11 -4 11 -10z m17 -39 c10 10 18
7 37 -12 24 -25 24 -25 3 -24 -30 0 -99 44 -91 57 4 7 13 2 23 -11 13 -17 19
-19 28 -10z m223 11 c0 -5 -7 -9 -15 -9 -8 0 -15 4 -15 9 0 4 7 8 15 8 8 0 15
-4 15 -8z m-10 -28 c0 -8 -19 -13 -24 -6 -3 5 1 9 9 9 8 0 15 -2 15 -3z m-112
-50 c10 -11 17 -13 20 -5 2 6 8 11 14 11 7 0 6 -5 -1 -14 -14 -16 -47 -10 -55
10 -7 19 2 18 22 -2z"/>
<path d="M881 2561 c-16 -28 13 -51 36 -28 18 18 11 47 -11 47 -9 0 -20 -9
-25 -19z"/>
<path d="M790 2511 c0 -5 7 -11 14 -14 10 -4 13 -1 9 9 -6 15 -23 19 -23 5z"/>
<path d="M4140 3663 c-30 -14 -32 -17 -14 -20 22 -4 22 -9 26 -211 4 -225 11
-260 62 -300 68 -53 185 -33 234 41 37 56 43 163 14 230 -33 75 -102 105 -166
72 -15 -8 -30 -15 -32 -15 -2 0 -4 42 -4 94 0 87 -2 96 -22 110 -28 20 -54 20
-98 -1z m212 -253 c13 -25 18 -59 18 -123 0 -101 -17 -157 -49 -157 -39 0 -54
43 -59 166 -4 101 -2 117 14 135 26 28 56 20 76 -21z"/>
<path d="M750 3649 c-115 -19 -170 -66 -170 -144 0 -40 36 -85 67 -85 33 0 63
29 63 60 0 36 -11 43 -45 28 -23 -10 -29 -10 -40 6 -29 39 25 98 92 100 l38 1
5 -233 c5 -228 6 -234 28 -252 49 -40 224 -35 281 8 49 37 66 70 66 130 -1 69
-22 105 -75 128 l-38 17 34 32 c30 29 34 38 34 83 0 43 -5 55 -30 80 -48 48
-168 64 -310 41z m220 -51 c40 -65 18 -156 -42 -178 l-33 -12 30 -9 c48 -13
86 -60 92 -113 7 -58 -1 -87 -33 -125 -27 -33 -70 -41 -92 -19 -17 17 -17 459
0 476 23 23 57 14 78 -20z"/>
<path d="M1488 3650 c-136 -22 -207 -104 -164 -189 29 -54 108 -51 122 5 9 36
-15 61 -43 43 -42 -26 -72 21 -40 62 19 25 76 50 105 47 l27 -3 5 -250 5 -250
27 -9 c18 -7 35 -6 53 2 l25 12 0 235 c0 144 4 244 10 256 15 27 55 24 79 -7
46 -58 17 -224 -39 -224 -11 0 -20 -3 -20 -7 0 -12 162 -318 178 -337 40 -44
100 -57 157 -32 l30 13 -27 6 c-33 9 -65 55 -139 196 -30 57 -65 116 -79 131
l-25 27 26 16 c91 52 90 191 -3 238 -49 25 -174 34 -270 19z"/>
<path d="M2590 3649 c-115 -19 -170 -66 -170 -144 0 -40 36 -85 67 -85 33 0
63 29 63 60 0 36 -11 43 -45 28 -23 -10 -29 -10 -40 6 -29 39 25 98 92 100
l38 1 5 -233 c5 -228 6 -234 28 -252 49 -40 224 -35 281 8 49 37 66 70 66 130
-1 69 -22 105 -75 128 l-38 17 34 32 c30 29 34 38 34 83 0 43 -5 55 -30 80
-48 48 -168 64 -310 41z m220 -51 c40 -65 18 -156 -42 -178 l-33 -12 30 -9
c48 -13 86 -60 92 -113 7 -58 -1 -87 -33 -125 -27 -33 -70 -41 -92 -19 -17 17
-17 459 0 476 23 23 57 14 78 -20z"/>
<path d="M3263 3479 c-36 -10 -63 -43 -63 -75 0 -44 51 -58 74 -21 9 15 7 21
-13 36 l-24 19 21 11 c28 15 64 14 86 -2 13 -9 17 -23 14 -52 -3 -42 -4 -43
-102 -87 -61 -27 -89 -68 -82 -122 6 -55 36 -81 90 -81 33 0 51 6 69 23 l25
23 25 -25 c33 -33 68 -33 104 -1 27 24 27 24 6 25 -23 0 -23 2 -23 134 l0 134
-29 30 c-41 41 -106 52 -178 31z m95 -227 c4 -76 -9 -104 -46 -100 -23 3 -28
10 -36 44 -13 64 24 129 69 119 6 -1 11 -29 13 -63z"/>
<path d="M3713 3470 c-34 -20 -44 -34 -19 -24 27 10 36 -33 36 -178 0 -152 4
-168 46 -168 53 0 54 3 54 141 l0 129 33 21 c20 12 44 19 65 16 27 -2 34 1 38
19 7 29 -12 64 -35 64 -10 0 -35 -18 -55 -40 -41 -46 -46 -48 -46 -20 0 27
-35 60 -62 60 -13 0 -38 -9 -55 -20z"/>
<path d="M4792 3464 c-72 -36 -106 -93 -106 -178 1 -69 18 -111 64 -149 61
-51 173 -42 230 18 26 27 17 33 -14 10 -42 -32 -112 -12 -147 41 -34 53 -27
67 62 120 92 54 111 80 85 119 -34 51 -96 58 -174 19z m88 -33 c21 -40 12 -69
-30 -96 -22 -14 -45 -25 -51 -25 -15 0 -3 87 17 118 18 27 50 29 64 3z"/>
<path d="M5204 3476 c-18 -8 -35 -20 -39 -27 -5 -8 -4 -10 4 -5 6 4 18 2 26
-4 12 -10 15 -44 15 -166 0 -154 0 -154 24 -165 34 -16 72 -4 80 23 3 13 6 74
6 135 l0 112 31 16 c17 9 45 15 62 13 29 -3 32 0 35 25 4 31 -12 57 -36 57 -8
0 -32 -18 -53 -40 -21 -22 -41 -40 -44 -40 -3 0 -5 11 -5 24 0 26 -33 56 -60
56 -8 -1 -29 -7 -46 -14z"/>
<path d="M2123 3205 c-32 -22 -31 -69 2 -91 31 -20 53 -15 78 19 l21 27 -21
28 c-24 33 -50 38 -80 17z"/>
<path d="M240 2215 l0 -25 2775 0 2775 0 0 25 0 25 -2775 0 -2775 0 0 -25z"/>
</g>
</svg>
