<?xml version="1.0" standalone="no"?>
<!DOCTYPE svg PUBLIC "-//W3C//DTD SVG 20010904//EN"
 "http://www.w3.org/TR/2001/REC-SVG-20010904/DTD/svg10.dtd">
<svg version="1.0" xmlns="http://www.w3.org/2000/svg"
  width="206" height="550" viewBox="0 0 600 550"
 preserveAspectRatio="xMidYMid meet">

<g transform="translate(50,0) scale(0.100000,-0.100000)"
fill="#f0f0f0" stroke="none">
<path d="M2856 4734 c-57 -21 -126 -67 -126 -84 1 -27 516 -835 530 -832 7 2
37 9 66 17 29 7 61 11 72 9 10 -3 36 -35 57 -71 l39 -66 -53 -102 c-98 -190
-286 -410 -436 -512 -33 -22 -105 -64 -159 -93 -55 -30 -108 -62 -118 -72 -21
-21 -23 -56 -6 -93 13 -30 120 -111 195 -149 79 -39 104 -35 171 27 88 82 162
163 225 246 72 93 211 375 236 475 24 97 40 94 68 -16 37 -146 70 -182 110
-122 16 25 16 30 -20 138 -22 64 -37 128 -36 151 2 42 -13 76 -154 350 -40 77
-95 174 -122 215 -202 300 -382 554 -407 575 -34 28 -72 31 -132 9z m171 -91
c107 -145 301 -440 337 -514 59 -122 59 -118 -25 -204 -40 -41 -75 -75 -79
-75 -4 0 -61 87 -127 193 -66 105 -176 280 -243 387 -68 107 -125 203 -127
212 -7 25 99 77 159 78 l48 0 57 -77z m448 -667 c25 -47 28 -57 16 -68 -12
-11 -13 -10 -9 3 3 8 -1 31 -9 50 -13 31 -16 32 -23 14 -14 -33 -83 -102 -110
-110 -22 -6 -21 -3 16 36 55 59 74 89 74 117 0 32 10 23 45 -42z m15 -196 c6
-11 8 -20 6 -20 -3 0 -10 9 -16 20 -6 11 -8 20 -6 20 3 0 10 -9 16 -20z m90
-20 c0 -5 -6 -7 -14 -4 -16 6 -30 -22 -16 -31 6 -4 15 -3 21 1 16 10 5 -46
-38 -186 -20 -63 -36 -122 -36 -130 0 -32 -111 -248 -184 -359 -87 -130 -276
-331 -312 -331 -26 0 -160 63 -217 101 -78 53 -66 85 58 149 113 59 175 100
260 171 169 141 329 356 409 549 12 30 27 61 32 68 11 14 37 16 37 2z m60
-120 c0 -5 -7 -7 -15 -4 -8 4 -12 10 -9 15 6 11 24 2 24 -11z m49 -215 c0 -5
-6 1 -14 15 -8 14 -14 30 -14 35 0 6 6 -1 14 -15 8 -14 14 -29 14 -35z m18
-77 c-3 -7 -5 -2 -5 12 0 14 2 19 5 13 2 -7 2 -19 0 -25z"/>
<path d="M2941 4645 c27 -41 30 -49 20 -77 -17 -48 -13 -56 13 -23 28 35 45
27 29 -13 -23 -59 -24 -66 -2 -33 21 31 23 32 36 15 17 -23 17 -24 -7 -85 -25
-62 -20 -73 10 -24 23 37 40 43 21 7 -17 -33 -12 -39 9 -12 l19 25 30 -29 c43
-41 45 -58 16 -115 -33 -67 -32 -72 8 -26 26 30 37 36 55 31 28 -9 37 -46 23
-87 -11 -31 -11 -32 8 -15 29 26 35 3 11 -46 l-21 -43 24 29 c27 31 44 28 80
-12 28 -31 14 -110 -30 -167 -19 -25 -30 -45 -24 -45 18 0 101 102 101 125 0
35 -62 145 -188 334 -164 247 -228 331 -252 331 -18 0 -17 -4 11 -45z"/>
<path d="M3503 3608 c-22 -46 -65 -121 -97 -167 -31 -46 -56 -85 -56 -87 0 -1
8 -5 18 -7 11 -3 10 -4 -4 -2 -15 1 -44 -24 -100 -85 -128 -140 -293 -265
-429 -326 -70 -30 -83 -48 -59 -75 30 -33 176 -119 202 -119 29 0 80 43 175
149 129 143 257 358 332 556 33 86 75 245 66 245 -5 0 -26 -37 -48 -82z m-13
-88 c-6 -4 -11 -10 -11 -14 1 -3 -1 -6 -4 -6 -6 0 -5 9 2 27 3 7 10 10 15 7 6
-4 6 -9 -2 -14z m-50 -149 c0 -5 -8 -15 -17 -22 -16 -12 -17 -12 -6 2 7 9 10
19 6 22 -3 4 -1 7 5 7 7 0 12 -4 12 -9z m-82 -61 c-7 -10 -14 -18 -15 -16 -6
6 9 36 18 36 5 0 4 -9 -3 -20z m6 -34 c-3 -8 1 -16 10 -18 13 -3 13 -5 -1 -23
-11 -14 -14 -15 -10 -4 3 9 1 21 -5 27 -6 6 -7 15 -4 21 10 16 16 14 10 -3z
m-24 -30 c0 -2 -8 -10 -17 -17 -16 -13 -17 -12 -4 4 13 16 21 21 21 13z m14
-31 c3 -8 1 -15 -4 -15 -6 0 -10 7 -10 15 0 8 2 15 4 15 2 0 6 -7 10 -15z
m-24 -25 c0 -13 -6 -20 -17 -19 -11 0 -13 3 -5 6 6 2 12 11 12 19 0 8 2 14 5
14 3 0 5 -9 5 -20z m-60 -40 c0 -5 -5 -10 -11 -10 -5 0 -7 5 -4 10 3 6 8 10
11 10 2 0 4 -4 4 -10z m-80 -33 c10 -4 8 -6 -7 -6 -13 -1 -23 -7 -24 -13 0
-10 -2 -10 -6 0 -2 6 -10 9 -16 6 -7 -4 -3 2 8 13 11 11 22 17 25 13 3 -4 12
-10 20 -13z m78 -7 c-7 -10 -14 -17 -17 -15 -4 4 18 35 25 35 2 0 -1 -9 -8
-20z m15 -27 c-27 -42 -52 -67 -60 -60 -3 4 -1 7 5 7 7 0 12 7 12 15 0 8 4 15
8 15 4 0 16 14 26 31 10 17 20 28 23 26 2 -3 -4 -18 -14 -34z m-86 11 c-3 -3
-12 -4 -19 -1 -8 3 -5 6 6 6 11 1 17 -2 13 -5z m-94 -19 c-3 -9 -8 -14 -10
-11 -3 3 -2 9 2 15 9 16 15 13 8 -4z m15 -25 c-7 -11 -16 -20 -20 -20 -5 0 -3
9 4 20 7 11 16 20 20 20 5 0 3 -9 -4 -20z m9 -30 c-3 -10 0 -21 7 -24 8 -3 8
-5 -1 -5 -16 -1 -24 14 -17 33 9 23 17 20 11 -4z m43 6 c0 -3 -4 -8 -10 -11
-5 -3 -10 -1 -10 4 0 6 5 11 10 11 6 0 10 -2 10 -4z m37 -2 c-3 -3 -12 -4 -19
-1 -8 3 -5 6 6 6 11 1 17 -2 13 -5z m-182 -14 c3 -5 -1 -10 -10 -10 -9 0 -13
5 -10 10 3 6 8 10 10 10 2 0 7 -4 10 -10z m192 -15 c-9 -7 -15 -14 -14 -16 2
-2 -4 -11 -14 -21 -16 -15 -17 -15 -22 2 -3 13 0 17 9 13 8 -3 14 1 14 11 0
10 -5 13 -17 9 -10 -4 -14 -2 -9 5 3 6 20 10 38 10 26 -1 29 -3 15 -13z m-177
-12 c-8 -4 -20 -13 -27 -22 -13 -17 -16 -12 -7 13 3 9 16 16 28 15 15 0 16 -2
6 -6z m-84 -18 c-8 -8 -21 -15 -28 -15 -8 1 -6 6 6 15 26 20 42 19 22 0z m174
11 c0 -3 -4 -8 -10 -11 -5 -3 -10 -1 -10 4 0 6 5 11 10 11 6 0 10 -2 10 -4z
m-107 -41 c-3 -9 -8 -14 -10 -11 -3 3 -2 9 2 15 9 16 15 13 8 -4z m87 11 c0
-2 -7 -7 -16 -10 -8 -3 -12 -2 -9 4 6 10 25 14 25 6z m-220 -16 c0 -5 -4 -10
-10 -10 -5 0 -10 5 -10 10 0 6 5 10 10 10 6 0 10 -4 10 -10z m260 -20 c-6 -11
-15 -20 -21 -20 -6 0 -8 -4 -5 -8 5 -9 -29 -42 -44 -42 -5 0 2 12 15 26 14 15
25 31 25 36 0 5 5 6 10 3 6 -3 10 1 10 9 0 9 5 16 10 16 7 0 7 -6 0 -20z
m-280 -12 c0 -5 -4 -8 -10 -8 -5 0 -10 -5 -10 -11 0 -6 7 -9 15 -5 8 3 15 1
15 -3 0 -5 -7 -11 -15 -15 -8 -3 -15 -2 -15 3 0 4 -14 5 -32 3 -31 -5 -31 -4
-15 12 9 10 17 21 17 26 0 4 11 7 25 6 14 0 25 -4 25 -8z m30 2 c0 -5 -5 -10
-11 -10 -5 0 -7 5 -4 10 3 6 8 10 11 10 2 0 4 -4 4 -10z m90 -5 c26 -32 -13
-81 -47 -59 -35 22 -23 74 17 74 10 0 23 -7 30 -15z m-110 -65 c-8 -5 -17 -7
-19 -4 -3 3 1 9 9 14 8 5 17 7 19 4 3 -3 -1 -9 -9 -14z m190 -11 c0 -6 -9 -8
-20 -4 -13 4 -20 2 -20 -6 0 -7 -3 -10 -6 -6 -3 3 -3 10 1 16 8 14 45 14 45 0z
m-170 -9 c0 -5 -5 -10 -11 -10 -5 0 -7 5 -4 10 3 6 8 10 11 10 2 0 4 -4 4 -10z
m107 -33 c-3 -8 -17 -14 -31 -14 -14 0 -23 4 -20 9 3 5 12 7 20 4 8 -3 17 1
21 10 3 8 8 13 10 10 3 -3 3 -12 0 -19z"/>
<path d="M2826 2891 c-4 -7 -5 -15 -2 -18 9 -9 19 4 14 18 -4 11 -6 11 -12 0z"/>
<path d="M2952 2891 c-19 -11 -11 -45 11 -49 9 -2 20 4 23 13 9 21 -16 47 -34
36z"/>
<path d="M2468 3864 c-32 -17 -35 -22 -10 -20 15 1 17 -16 22 -201 5 -184 7
-204 26 -230 46 -63 142 -80 203 -36 86 63 94 233 14 303 -38 33 -69 38 -113
15 l-30 -16 0 84 c0 69 -3 87 -18 100 -23 21 -58 21 -94 1z m188 -220 c23 -35
30 -165 12 -219 -18 -56 -52 -61 -73 -11 -19 44 -21 226 -3 244 20 20 46 14
64 -14z"/>
<path d="M215 3854 c-104 -17 -160 -53 -171 -110 -11 -62 45 -112 96 -84 15 8
20 19 18 38 -3 24 -7 27 -38 27 -31 0 -35 3 -38 27 -4 34 33 60 86 62 l37 1 3
-206 2 -206 26 -24 c23 -22 35 -24 112 -24 74 0 93 4 129 24 68 39 90 111 58
187 -10 25 -26 40 -52 51 l-38 16 33 33 c55 55 41 133 -31 170 -32 17 -171 27
-232 18z m181 -50 c19 -29 22 -101 5 -133 -7 -11 -23 -24 -36 -27 -28 -7 -34
-24 -9 -24 9 0 32 -16 51 -35 34 -34 35 -38 31 -95 -5 -74 -35 -113 -83 -108
l-30 3 -3 210 c-1 115 0 215 2 222 9 23 54 15 72 -13z"/>
<path d="M729 3850 c-59 -10 -116 -37 -134 -64 -8 -11 -15 -37 -15 -58 0 -67
64 -103 104 -59 29 32 17 56 -29 56 -33 0 -41 4 -43 20 -4 30 39 66 87 72 23
3 42 4 43 2 1 -2 5 -105 8 -228 4 -196 7 -225 22 -235 11 -7 26 -7 45 0 l28 9
3 219 c2 223 6 246 42 246 73 0 79 -197 6 -216 l-26 -6 81 -160 c63 -124 88
-164 112 -179 37 -22 77 -23 127 -4 32 12 33 14 9 14 -37 1 -70 42 -138 171
-33 64 -69 125 -80 137 l-20 21 33 20 c62 37 71 138 17 186 -46 42 -162 56
-282 36z"/>
<path d="M1459 3850 c-59 -10 -116 -37 -134 -64 -8 -11 -15 -37 -15 -58 0 -67
64 -103 104 -59 29 32 17 56 -29 56 -33 0 -41 4 -43 20 -6 45 106 100 129 64
5 -8 9 -105 9 -216 l0 -203 27 -17 c37 -25 184 -25 230 0 54 29 73 62 73 128
0 47 -5 63 -25 87 -14 16 -37 33 -52 37 l-27 6 27 22 c77 64 46 170 -58 196
-49 12 -146 13 -216 1z m200 -46 c42 -53 14 -164 -40 -164 -31 0 -22 -13 24
-35 50 -24 74 -77 63 -137 -12 -66 -79 -111 -114 -76 -17 17 -17 409 0 426 19
19 45 14 67 -14z"/>
<path d="M1930 3692 c-29 -14 -36 -23 -38 -54 -3 -30 1 -38 19 -43 14 -5 27
-1 38 9 15 16 14 18 -7 34 -28 22 -13 42 33 42 39 0 55 -16 55 -55 0 -37 -20
-57 -74 -76 -92 -32 -126 -119 -70 -176 21 -21 32 -25 66 -20 22 3 48 13 58
22 17 16 20 15 39 -4 26 -26 52 -27 94 -4 30 16 30 18 10 21 -22 3 -23 7 -23
125 0 137 -8 159 -66 183 -45 19 -92 18 -134 -4z m98 -211 c3 -67 -7 -91 -39
-91 -44 0 -49 109 -8 143 34 27 44 16 47 -52z"/>
<path d="M2224 3700 c-27 -11 -40 -30 -21 -30 23 0 27 -23 27 -170 0 -131 1
-139 21 -145 11 -4 31 -4 45 -1 24 6 24 8 24 125 0 118 0 120 27 141 19 15 38
20 60 18 25 -3 33 0 37 16 6 25 -10 56 -30 56 -9 0 -32 -16 -51 -35 -40 -40
-43 -41 -43 -17 0 41 -48 62 -96 42z"/>
<path d="M2935 3692 c-51 -24 -92 -72 -101 -118 -27 -146 60 -248 184 -215 26
6 58 24 72 38 l25 26 -27 -16 c-56 -35 -118 -13 -144 49 -8 18 -14 38 -14 44
0 5 26 26 58 47 80 52 102 73 102 98 0 54 -85 79 -155 47z m62 -24 c32 -40 18
-77 -41 -114 l-29 -18 5 56 c6 75 37 111 65 76z"/>
<path d="M3164 3700 c-27 -11 -40 -30 -21 -30 23 0 27 -23 27 -170 0 -131 1
-139 21 -145 11 -4 31 -4 45 -1 24 6 24 8 24 125 0 118 0 120 27 141 19 15 38
20 60 18 25 -3 33 0 37 16 6 25 -10 56 -30 56 -9 0 -32 -16 -51 -35 -40 -40
-43 -41 -43 -17 0 41 -48 62 -96 42z"/>
<path d="M1176 3444 c-9 -8 -16 -29 -16 -45 0 -38 37 -58 75 -41 45 21 25 102
-25 102 -10 0 -26 -7 -34 -16z"/>
</g>
</svg>
